<?xml version="1.0" standalone="no"?>
<!DOCTYPE svg PUBLIC "-//W3C//DTD SVG 20010904//EN"
 "http://www.w3.org/TR/2001/REC-SVG-20010904/DTD/svg10.dtd">
<svg version="1.0" xmlns="http://www.w3.org/2000/svg"
 width="900.000000pt" height="876.000000pt" viewBox="0 0 900.000000 876.000000"
 preserveAspectRatio="xMidYMid meet">
<metadata>
Created by potrace 1.10, written by Peter Selinger 2001-2011
</metadata>
<g transform="translate(0.000000,876.000000) scale(0.100000,-0.100000)"
fill="#ffffff" stroke="none">
<path d="M1134 7219 c-51 -18 -26 -80 64 -161 48 -44 52 -44 82 -20 32 26 21
58 -40 125 -54 58 -73 69 -106 56z"/>
<path d="M1446 6844 c-27 -26 -18 -47 45 -117 63 -69 98 -84 127 -55 28 28 3
75 -90 170 -22 22 -61 23 -82 2z"/>
<path d="M1895 6776 c-11 -8 -16 -19 -12 -30 9 -23 22 -20 59 14 l33 29 -31 1
c-16 0 -39 -6 -49 -14z"/>
<path d="M2454 6526 c-8 -21 -1 -49 14 -54 8 -2 12 7 12 27 0 33 -17 51 -26
27z"/>
<path d="M6857 6468 c-29 -40 -68 -94 -86 -120 -31 -46 -62 -61 -76 -38 -9 14
-78 13 -93 -2 -21 -21 -13 -54 18 -81 17 -15 30 -34 30 -42 0 -8 -33 -59 -72
-114 -40 -54 -102 -139 -138 -189 -36 -50 -70 -94 -77 -96 -6 -3 -25 0 -42 7
-27 10 -33 9 -51 -11 -11 -12 -26 -19 -34 -16 -7 3 -26 33 -42 67 -18 38 -36
63 -47 65 -17 3 -18 -3 -15 -70 l3 -73 -28 -3 c-23 -3 -27 -7 -25 -30 3 -24
-1 -27 -26 -27 -40 0 -42 17 -6 38 23 14 29 23 24 41 -3 12 2 74 11 137 14
106 14 115 -1 126 -22 16 -52 0 -58 -30 -15 -76 -30 -213 -31 -274 0 -85 -8
-98 -53 -82 -30 10 -32 14 -32 62 0 29 7 65 15 80 8 16 12 40 9 56 -7 32 13
177 28 204 6 11 16 16 25 13 18 -7 43 10 43 31 0 8 -14 22 -31 31 -28 16 -30
20 -25 57 3 22 9 68 12 101 l7 61 -64 12 c-35 6 -111 16 -168 22 -125 13 -125
13 -135 -93 -7 -80 -16 -95 -54 -100 -21 -2 -28 -9 -30 -30 -3 -22 2 -30 23
-38 35 -13 40 -31 25 -98 -6 -31 -14 -84 -16 -117 -5 -61 -32 -246 -40 -277
-3 -9 -19 -19 -37 -23 -121 -24 -435 -151 -466 -188 -11 -14 -9 -17 16 -23 65
-15 170 -43 200 -54 119 -43 380 -202 463 -282 55 -54 130 -136 130 -143 0 -3
-10 -19 -22 -36 -15 -20 -34 -31 -61 -36 -36 -5 -38 -7 -32 -34 6 -25 -6 -41
-122 -166 -71 -76 -144 -155 -163 -176 -19 -22 -42 -43 -51 -48 -22 -11 -150
35 -168 62 -29 42 -236 185 -311 216 -131 53 -201 65 -351 59 -74 -2 -153 -8
-176 -11 -36 -6 -43 -4 -56 17 -21 32 -217 521 -217 540 0 9 10 22 23 30 26
17 137 54 188 62 33 6 69 31 58 40 -2 2 -44 21 -94 44 -185 84 -359 138 -530
166 l-100 16 -65 69 c-118 124 -225 243 -244 273 -37 57 -103 71 -127 27 -8
-16 -5 -29 16 -66 l27 -45 -28 -24 c-16 -13 -34 -23 -41 -24 -29 -1 -83 39
-118 87 -36 50 -40 52 -56 37 -10 -9 -21 -25 -24 -35 -9 -27 -42 -24 -68 6
-73 82 -204 205 -217 205 -20 0 -50 -31 -50 -50 0 -7 14 -35 31 -62 33 -51 33
-78 -1 -78 -22 0 -57 48 -67 93 -6 28 -59 75 -70 63 -4 -4 -7 -21 -7 -39 -1
-27 -5 -33 -31 -38 -75 -16 -94 -11 -148 40 -29 26 -59 51 -67 53 -8 3 -34 -5
-58 -19 l-42 -24 -30 33 c-72 78 -85 88 -117 88 -31 0 -53 -21 -53 -49 0 -5
25 -39 56 -75 57 -67 62 -88 29 -116 -25 -21 -17 -53 24 -99 47 -53 56 -82 39
-119 -9 -19 -23 -29 -48 -33 -19 -4 -28 -7 -19 -8 18 -1 59 -42 59 -59 0 -22
-36 -32 -70 -21 -17 6 -34 8 -38 4 -4 -4 -1 -10 7 -13 7 -2 21 -13 29 -23 9
-11 21 -19 27 -19 17 0 85 -68 85 -84 0 -27 -38 -17 -73 19 -81 83 -150 7 -71
-79 26 -28 34 -45 30 -61 -4 -15 1 -28 14 -40 14 -13 20 -31 20 -64 0 -40 4
-49 33 -72 45 -36 96 -61 112 -55 16 6 10 -15 -19 -69 -9 -16 -21 -49 -26 -72
-12 -46 -21 -50 -60 -28 -35 20 -77 18 -126 -6 -61 -29 -67 -39 -52 -88 14
-43 11 -42 143 -53 22 -2 31 -9 35 -28 3 -14 18 -31 33 -38 15 -7 27 -20 27
-28 0 -8 16 -24 35 -35 37 -22 47 -55 20 -65 -9 -4 -34 -2 -57 4 -48 12 -78 2
-78 -28 0 -24 33 -46 82 -54 43 -8 68 -29 68 -56 0 -33 -29 -39 -97 -22 l-62
16 -35 -33 c-29 -28 -39 -32 -65 -26 -38 8 -57 -5 -66 -45 -6 -28 -8 -29 -55
-23 -42 5 -49 3 -54 -14 -10 -30 1 -48 37 -64 19 -9 41 -31 55 -56 16 -29 32
-45 50 -49 42 -10 52 -23 52 -65 0 -33 4 -41 31 -54 19 -10 29 -22 27 -33 -6
-30 -41 -24 -103 17 -33 22 -63 41 -67 41 -12 0 -10 -38 2 -45 13 -8 13 -45 0
-45 -12 0 -34 24 -79 85 -33 44 -71 75 -71 57 0 -18 60 -119 85 -142 27 -25
30 -40 16 -68 -5 -9 -14 -30 -20 -45 -6 -15 -24 -36 -41 -45 -17 -9 -30 -25
-30 -36 0 -10 -8 -25 -17 -32 -16 -12 -13 -15 35 -36 l52 -22 -3 -55 c-3 -51
-6 -56 -28 -59 -51 -6 -54 -11 -25 -41 26 -27 27 -33 21 -85 l-7 -55 36 -17
c41 -20 45 -37 15 -62 -12 -9 -26 -22 -33 -28 -29 -27 -93 -43 -136 -33 -49
11 -76 5 -108 -25 -31 -28 -48 -62 -56 -113 -5 -38 -3 -46 26 -79 38 -43 82
-64 134 -64 47 0 97 52 114 118 7 26 14 54 16 62 7 24 38 57 61 64 25 8 53
-25 53 -61 0 -29 7 -29 37 -1 19 17 28 20 41 12 20 -13 28 -52 13 -67 -6 -6
-11 -19 -11 -29 0 -15 8 -17 53 -15 l52 2 3 -40 c2 -32 -3 -49 -28 -84 -30
-41 -34 -77 -7 -69 6 2 20 21 31 42 15 31 23 37 45 34 25 -3 26 -5 26 -73 l0
-70 30 0 c28 0 30 -3 33 -40 2 -22 -3 -47 -10 -56 -7 -9 -49 -36 -93 -59 -101
-54 -117 -68 -113 -99 5 -37 26 -37 44 1 17 38 26 44 116 90 58 29 63 30 114
19 30 -7 56 -16 59 -20 15 -26 246 76 412 182 24 15 49 27 56 27 8 0 34 15 58
33 24 17 59 40 78 51 33 18 33 18 55 -3 l21 -22 -26 -22 c-15 -12 -69 -52
-120 -89 -52 -37 -177 -126 -279 -199 -102 -73 -201 -143 -220 -156 -19 -13
-95 -67 -167 -121 -140 -103 -153 -121 -112 -158 20 -18 22 -18 51 -1 40 23
53 22 78 -10 l21 -26 -31 -32 c-36 -37 -37 -51 -8 -82 l21 -23 32 20 c37 23
57 19 80 -16 16 -24 15 -26 -21 -59 -36 -34 -37 -34 -20 -60 34 -52 4 -67 361
188 244 174 332 238 480 345 168 122 205 146 211 139 12 -12 -8 -43 -43 -67
-20 -14 -49 -38 -65 -54 l-29 -29 31 -32 c40 -42 36 -57 -36 -115 -96 -78
-192 -174 -203 -203 -6 -16 -11 -55 -11 -88 0 -64 1 -63 -85 -134 -68 -56 -96
-88 -93 -104 5 -24 27 -24 38 1 14 33 28 48 97 101 59 45 64 47 128 47 71 0
103 12 170 64 58 45 307 248 330 269 11 10 33 26 48 35 15 9 26 22 25 28 -2 7
-49 60 -105 118 -77 80 -104 115 -109 141 -5 28 -11 35 -30 35 -17 0 -24 6
-24 19 0 26 17 36 35 21 18 -15 40 0 51 33 10 34 52 67 83 67 15 0 36 9 46 20
10 11 26 20 37 20 14 0 18 8 18 40 0 55 -18 53 -108 -15 -40 -30 -80 -55 -87
-55 -8 0 -30 -14 -49 -31 -46 -40 -72 -35 -114 20 -40 53 -40 85 1 89 57 7 39
66 -27 90 -40 15 -58 10 -38 -10 16 -16 15 -28 -3 -28 -8 0 -15 8 -15 17 0 9
-9 26 -19 37 -33 36 -132 286 -146 371 -4 22 -16 67 -27 100 -22 67 -44 207
-53 341 -6 82 -2 142 25 375 12 108 46 210 119 365 162 339 383 565 719 734
56 28 107 48 113 44 11 -6 54 -96 69 -144 5 -14 38 -97 74 -184 36 -88 66
-167 66 -176 0 -9 -7 -37 -16 -62 -12 -38 -33 -61 -108 -126 -77 -67 -102 -95
-151 -178 -32 -55 -71 -111 -85 -126 -19 -18 -24 -31 -18 -41 5 -9 2 -41 -7
-79 -22 -88 -30 -287 -16 -378 7 -41 14 -102 18 -135 3 -33 11 -67 18 -75 30
-37 48 -110 43 -175 -5 -51 -3 -65 8 -65 28 0 204 -257 204 -298 0 -10 20 -35
45 -55 25 -21 45 -45 45 -53 0 -16 -6 -12 165 -140 71 -53 143 -103 160 -110
17 -7 79 -23 139 -35 100 -21 114 -22 208 -10 115 14 128 9 108 -38 -18 -44
-7 -53 55 -46 l54 7 20 -43 c27 -56 26 -65 -6 -81 -17 -8 -29 -23 -31 -37 -3
-22 -1 -23 35 -19 60 8 85 -6 81 -43 -2 -26 -9 -33 -38 -43 -39 -12 -51 -44
-25 -66 27 -22 13 -80 -20 -80 -16 0 -35 60 -35 113 0 47 -13 69 -24 41 -3 -9
-6 -29 -6 -45 0 -22 -6 -30 -24 -35 -38 -9 -46 -54 -10 -54 8 0 23 -19 33 -42
11 -24 29 -51 41 -61 28 -23 23 -59 -10 -69 -14 -4 -58 -12 -99 -19 l-74 -13
-22 28 c-20 25 -25 27 -76 20 -41 -5 -59 -13 -76 -33 -20 -25 -25 -26 -110
-24 -164 4 -488 106 -528 167 -14 21 -20 23 -35 14 -14 -9 -27 -5 -68 22 -28
18 -53 39 -56 46 -3 8 -14 14 -25 14 -24 0 -107 54 -115 75 -8 21 -55 19 -63
-2 -4 -10 -45 -57 -92 -104 -139 -139 -131 -120 -75 -173 26 -25 50 -46 53
-46 3 0 55 52 114 115 70 74 116 115 129 115 11 0 50 -26 87 -58 36 -32 89
-75 116 -97 28 -22 52 -42 55 -45 38 -42 567 -430 588 -430 15 0 284 201 462
345 160 130 159 129 188 102 26 -25 25 -25 135 56 60 46 79 72 61 90 -3 3 -21
-2 -40 -11 -34 -16 -34 -16 -69 18 -19 19 -35 40 -35 47 0 8 -6 26 -14 41 -8
15 -15 54 -17 87 l-4 60 45 5 c37 4 46 9 48 28 2 14 -3 24 -15 29 -38 14 -73
48 -88 85 -20 52 -19 90 5 136 24 46 18 70 -18 74 -41 5 -32 28 20 57 32 17
58 42 79 76 17 28 34 52 38 55 36 28 131 198 131 235 0 8 9 23 19 32 14 12 18
24 14 44 -4 20 1 36 16 55 11 15 21 33 21 40 0 23 -55 16 -83 -10 -15 -14 -37
-28 -49 -31 -13 -4 -32 -13 -43 -19 -11 -7 -74 -34 -140 -60 -66 -26 -140 -56
-165 -66 -63 -26 -143 -49 -151 -45 -5 4 -53 113 -125 288 -13 32 -24 64 -24
71 0 7 -15 43 -34 82 -47 95 -53 122 -30 131 11 3 35 17 54 29 19 13 91 46
160 74 69 28 139 57 155 64 17 8 50 21 75 31 25 9 58 24 73 32 22 12 32 12 40
3 9 -9 8 -14 -5 -24 -26 -19 -22 -26 12 -26 21 0 35 8 46 25 9 14 33 33 53 41
20 8 45 26 56 39 14 18 103 58 295 136 339 136 340 137 357 113 17 -24 17 -31
-7 -51 -29 -25 -25 -33 19 -33 102 0 114 -11 149 -140 60 -225 61 -491 1 -790
-25 -130 -45 -193 -85 -272 -27 -55 -32 -71 -23 -85 6 -10 100 -87 208 -171
108 -84 259 -202 336 -262 77 -60 149 -110 160 -110 12 0 32 17 50 43 16 23
44 58 61 77 67 75 71 67 -83 187 -256 202 -340 268 -456 358 -64 50 -116 97
-116 106 -1 9 6 22 14 29 19 16 33 9 130 -60 39 -27 75 -50 82 -50 6 0 20 13
29 29 27 46 46 44 126 -12 40 -28 100 -69 133 -92 33 -23 90 -63 126 -88 37
-26 74 -47 82 -47 17 0 57 46 57 65 0 12 -97 87 -172 134 -61 37 -62 46 -7
124 27 39 49 76 49 83 0 7 -44 43 -97 80 -216 149 -264 187 -253 198 7 7 37
-4 101 -38 50 -26 94 -44 99 -40 13 15 70 122 70 132 0 6 -35 28 -79 51 -109
56 -109 57 -70 131 l32 60 50 -2 c53 -3 54 -2 77 62 26 74 25 79 -14 95 -20 8
-36 20 -36 25 0 5 8 36 19 67 75 234 100 478 61 613 -7 25 -6 39 3 53 7 10 70
43 140 73 101 43 131 52 146 44 27 -14 27 -14 50 25 11 19 27 35 35 35 20 0
76 33 76 45 -1 6 -18 50 -39 98 -35 82 -41 90 -81 108 -55 25 -60 24 -60 -6 0
-29 -24 -43 -44 -26 -11 10 -20 5 -41 -23 -15 -19 -37 -38 -48 -42 -12 -4 -49
-19 -82 -34 -135 -61 -155 -63 -155 -10 0 33 -22 84 -42 97 -22 14 -89 106
-85 117 7 22 42 10 62 -21 27 -43 48 -48 102 -28 25 10 48 14 52 9 19 -26 40
-35 60 -25 13 7 22 8 26 1 3 -5 -19 -26 -50 -45 -100 -64 -59 -88 55 -32 71
35 82 55 49 86 -23 22 -23 20 9 82 6 13 -30 39 -53 39 -29 0 -41 -16 -25 -35
21 -25 0 -35 -75 -35 -94 0 -129 12 -120 41 6 17 -5 33 -55 80 l-63 59 55 53
c40 38 57 62 62 90 5 25 18 46 41 64 19 16 35 33 35 39 0 17 130 209 181 268
5 5 19 2 34 -8 28 -18 74 -24 94 -12 22 14 12 62 -19 89 -16 15 -30 32 -30 37
0 6 38 65 85 132 47 66 85 125 85 130 0 16 -411 308 -434 308 -9 0 -40 -33
-69 -72z m135 -104 c36 -25 37 -27 23 -53 -8 -14 -22 -36 -32 -49 l-18 -22
-43 27 c-49 32 -52 50 -16 92 31 38 38 38 86 5z m-1232 -69 c15 -19 -1 -65
-23 -65 -29 0 -50 26 -43 53 7 31 45 37 66 12z m145 -39 c0 -36 -26 -56 -49
-37 -16 14 -22 52 -9 65 4 4 19 6 33 4 20 -2 25 -8 25 -32z m1271 -22 c19 -15
34 -31 34 -37 0 -19 -51 -77 -68 -77 -9 0 -30 11 -46 23 -33 27 -32 56 4 95
26 28 34 28 76 -4z m-224 -101 c59 -41 110 -79 114 -84 3 -6 0 -23 -6 -39 -9
-22 -21 -31 -45 -36 -29 -5 -45 3 -144 72 -71 49 -111 83 -111 95 0 28 48 79
68 72 9 -4 65 -40 124 -80z m-1085 21 c27 -8 36 -30 22 -55 -9 -18 -17 -20
-74 -14 -128 14 -149 25 -131 72 6 13 19 15 84 10 42 -4 87 -10 99 -13z
m-2539 -296 c20 -20 14 -43 -17 -61 -36 -21 -41 -21 -41 -2 0 8 -8 15 -17 15
-10 0 -25 5 -33 10 -13 9 -11 13 10 30 28 22 80 26 98 8z m2414 -130 c93 -12
112 -24 91 -57 -12 -20 -178 -43 -205 -29 -20 10 -23 34 -8 72 11 30 6 30 122
14z m1264 -904 c19 -44 22 -59 13 -70 -18 -21 -48 -17 -58 9 -36 94 -36 117 0
117 15 0 27 -15 45 -56z m-1768 -2221 c-4 -22 -22 -20 -26 1 -2 10 3 16 13 16
10 0 15 -7 13 -17z m-20 -388 c7 -15 8 -34 3 -47 -6 -18 -3 -30 15 -51 32 -38
30 -50 -9 -72 -37 -19 -69 -16 -102 10 -20 15 -19 16 22 54 42 37 43 40 37 85
-5 37 -4 46 8 46 8 0 20 -11 26 -25z"/>
<path d="M1757 6502 c-25 -28 -21 -45 25 -98 79 -91 107 -104 142 -65 25 27
15 51 -51 121 -59 64 -87 74 -116 42z"/>
<path d="M5535 6460 c-8 -12 20 -24 35 -15 5 3 10 10 10 16 0 12 -37 12 -45
-1z"/>
<path d="M2090 6452 c0 -12 23 -32 37 -32 7 0 13 9 13 20 0 15 -7 20 -25 20
-14 0 -25 -4 -25 -8z"/>
<path d="M6444 6268 c-11 -13 -52 -68 -91 -123 -158 -224 -159 -227 -125 -258
39 -35 56 -23 148 109 49 69 104 145 122 169 47 64 41 125 -13 125 -12 0 -30
-10 -41 -22z"/>
<path d="M6041 6251 c-10 -7 -10 -13 -2 -30 16 -28 31 -27 31 3 0 29 -10 38
-29 27z"/>
<path d="M3520 6175 c-13 -14 -21 -27 -18 -30 2 -3 17 9 33 25 16 17 24 30 19
30 -6 0 -21 -11 -34 -25z"/>
<path d="M1690 6186 c0 -7 67 -46 79 -46 21 0 11 20 -19 35 -27 14 -60 20 -60
11z"/>
<path d="M5467 6106 c-8 -8 -17 -45 -21 -82 -4 -36 -13 -82 -21 -101 -10 -23
-12 -46 -7 -71 6 -30 13 -38 34 -40 20 -2 31 4 43 22 9 14 14 30 10 36 -4 6
-2 58 5 116 8 81 8 109 -1 120 -15 18 -24 18 -42 0z"/>
<path d="M7173 5748 c-11 -13 -47 -61 -79 -108 -32 -47 -77 -110 -100 -140
-22 -30 -44 -65 -48 -77 -10 -33 10 -63 42 -63 37 0 42 5 94 80 24 36 71 101
102 145 32 44 65 95 74 112 14 30 14 34 -3 53 -24 26 -57 25 -82 -2z"/>
<path d="M7191 4721 c-58 -26 -80 -43 -81 -63 0 -15 39 -7 107 21 48 21 68 35
68 48 0 26 -23 25 -94 -6z"/>
<path d="M1161 4546 c-22 -26 -9 -50 36 -65 34 -12 44 -13 57 -2 20 17 21 45
2 60 -25 21 -80 25 -95 7z"/>
<path d="M1411 4486 c-20 -24 -9 -50 33 -69 51 -24 70 -19 74 19 4 36 -10 50
-59 59 -26 5 -39 2 -48 -9z"/>
<path d="M1640 4421 c-14 -28 -3 -48 32 -60 42 -15 63 -14 78 4 20 24 2 53
-38 65 -51 14 -60 13 -72 -9z"/>
<path d="M1350 4350 c25 -22 48 -40 53 -40 4 0 34 -18 66 -40 64 -44 97 -53
60 -17 -28 27 -116 87 -128 87 -5 0 -14 7 -21 15 -7 8 -21 15 -31 15 -11 0
-19 5 -19 10 0 6 -6 10 -12 10 -7 -1 7 -19 32 -40z"/>
<path d="M5601 3961 c-13 -23 -5 -31 31 -31 21 0 28 5 28 19 0 17 -18 31 -40
31 -5 0 -14 -8 -19 -19z"/>
<path d="M5810 3934 c0 -17 22 -14 28 4 2 7 -3 12 -12 12 -9 0 -16 -7 -16 -16z"/>
<path d="M833 3882 c-35 -3 -43 -16 -17 -26 19 -7 94 4 94 14 0 10 -37 16 -77
12z"/>
<path d="M4973 3710 c-13 -5 -23 -17 -23 -25 0 -13 9 -15 38 -13 29 2 37 7 37
23 0 23 -20 28 -52 15z"/>
<path d="M5175 3691 c-16 -27 37 -69 97 -77 42 -6 45 -5 72 35 16 23 27 43 24
46 -2 3 -36 1 -74 -4 -38 -4 -79 -5 -91 0 -12 5 -25 4 -28 0z"/>
<path d="M5440 3690 c0 -5 7 -10 15 -10 8 0 15 5 15 10 0 6 -7 10 -15 10 -8 0
-15 -4 -15 -10z"/>
<path d="M5782 3611 c4 -13 18 -16 19 -4 0 4 -5 9 -11 12 -7 2 -11 -2 -8 -8z"/>
<path d="M5637 3594 c-10 -11 -8 -54 2 -54 14 0 25 40 14 51 -5 5 -12 6 -16 3z"/>
<path d="M7358 3568 c-21 -11 -38 -23 -38 -27 0 -4 14 -26 31 -49 25 -34 34
-40 49 -32 12 7 33 5 67 -5 53 -16 169 -20 177 -6 10 16 -67 63 -133 81 -22 6
-53 22 -69 35 -34 29 -35 29 -84 3z"/>
<path d="M5100 3540 c0 -5 7 -10 15 -10 8 0 15 5 15 10 0 6 -7 10 -15 10 -8 0
-15 -4 -15 -10z"/>
<path d="M4990 3345 c-10 -12 -10 -18 0 -30 21 -25 42 -18 38 12 -4 32 -20 40
-38 18z"/>
<path d="M5150 3335 c0 -15 38 -41 47 -32 2 3 0 15 -7 26 -12 24 -40 28 -40 6z"/>
<path d="M3508 3279 c-44 -45 -45 -52 -18 -86 29 -37 28 -47 -18 -122 -11 -18
-10 -21 2 -21 8 0 24 19 36 43 27 55 60 70 133 61 49 -6 55 -4 61 14 9 28 34
46 64 47 24 0 27 4 30 39 l3 38 -48 -6 c-87 -12 -165 -3 -195 22 -10 7 -23 0
-50 -29z"/>
<path d="M5751 3286 c-12 -14 -5 -26 16 -26 15 0 18 26 4 34 -5 3 -14 0 -20
-8z"/>
<path d="M5720 3166 c0 -9 7 -16 16 -16 9 0 14 5 12 12 -6 18 -28 21 -28 4z"/>
<path d="M1325 3043 c-48 -12 -60 -43 -17 -43 34 0 68 23 58 38 -8 13 -9 13
-41 5z"/>
<path d="M3738 2902 c-10 -2 -18 -10 -18 -18 0 -18 51 -16 57 2 5 14 -15 22
-39 16z"/>
<path d="M3880 2859 c-43 -28 -77 -80 -65 -99 9 -14 31 -1 43 26 14 29 35 31
69 4 33 -26 46 -25 79 3 31 27 26 43 -16 52 -17 4 -35 15 -40 26 -13 24 -16
24 -70 -12z"/>
<path d="M3745 2740 c-8 -12 20 -24 35 -15 5 3 10 10 10 16 0 12 -37 12 -45
-1z"/>
<path d="M1473 2670 c-26 -11 -28 -19 -11 -55 11 -24 12 -24 30 -9 10 10 18
30 18 46 0 30 -3 32 -37 18z"/>
<path d="M3733 2663 c-30 -21 -29 -41 3 -54 47 -17 87 38 45 61 -24 12 -21 13
-48 -7z"/>
<path d="M3592 2633 c3 -43 22 -52 53 -28 20 15 19 16 -10 40 -40 33 -47 32
-43 -12z"/>
<path d="M6040 2589 c-22 -28 -40 -56 -39 -62 0 -7 57 -61 125 -122 68 -60
134 -119 147 -130 145 -133 209 -185 224 -185 20 0 63 50 63 72 0 7 -88 91
-195 186 -174 154 -194 176 -189 198 5 19 -2 32 -29 59 -19 19 -42 35 -51 35
-8 0 -34 -23 -56 -51z"/>
<path d="M3570 2554 c-41 -22 -31 -39 28 -42 57 -3 68 10 34 41 -22 20 -28 20
-62 1z"/>
<path d="M6346 2561 c-3 -4 6 -19 19 -31 31 -29 53 -16 29 18 -15 22 -39 29
-48 13z"/>
<path d="M4852 2548 c-5 -7 -13 -28 -17 -46 -4 -19 -20 -49 -37 -68 l-30 -34
23 -20 c32 -26 42 -25 67 10 24 31 28 55 12 65 -16 10 -12 23 20 55 17 17 28
35 25 41 -9 13 -51 11 -63 -3z"/>
<path d="M4435 2539 c-4 -6 -5 -13 -2 -16 7 -7 27 6 27 18 0 12 -17 12 -25 -2z"/>
<path d="M5919 2452 c-37 -38 -45 -52 -37 -65 12 -23 31 -21 53 3 10 11 25 20
32 20 8 0 60 -44 115 -97 101 -100 140 -120 146 -78 2 15 -32 55 -122 143 -69
67 -129 122 -133 122 -4 0 -29 -22 -54 -48z"/>
<path d="M4460 2388 c0 -23 44 -58 73 -58 53 0 19 54 -41 66 -24 5 -32 3 -32
-8z"/>
<path d="M1140 2363 c0 -34 25 -73 46 -73 29 0 24 27 -11 64 l-35 37 0 -28z"/>
<path d="M4037 2354 c-9 -10 2 -24 19 -24 8 0 14 7 14 15 0 15 -21 21 -33 9z"/>
<path d="M1887 2323 c-10 -18 -29 -104 -25 -109 3 -2 12 -2 21 2 16 6 40 91
31 106 -6 10 -22 10 -27 1z"/>
<path d="M5748 2299 c-16 -11 -28 -28 -28 -36 0 -13 80 -108 205 -241 l22 -24
37 32 c20 18 36 38 36 45 0 20 -210 245 -228 245 -9 0 -29 -10 -44 -21z"/>
<path d="M6650 2306 c0 -20 27 -39 46 -32 15 6 15 8 -1 26 -21 23 -45 26 -45
6z"/>
<path d="M4075 2200 c-4 -6 -3 -16 3 -22 6 -6 12 -6 17 2 4 6 3 16 -3 22 -6 6
-12 6 -17 -2z"/>
<path d="M4410 2203 c-53 -10 -71 -53 -22 -53 29 0 78 40 65 53 -3 4 -9 6 -12
6 -3 -1 -17 -4 -31 -6z"/>
<path d="M4860 2165 c0 -19 24 -30 41 -19 9 5 7 11 -6 21 -24 17 -35 17 -35
-2z"/>
<path d="M4822 2079 c2 -6 8 -10 13 -10 5 0 11 4 13 10 2 6 -4 11 -13 11 -9 0
-15 -5 -13 -11z"/>
<path d="M6946 2082 c-9 -14 24 -52 45 -52 25 0 24 12 -4 38 -25 24 -33 26
-41 14z"/>
<path d="M7192 2025 c-18 -14 -31 -14 -83 -5 -57 11 -64 10 -82 -9 -17 -16
-19 -25 -10 -43 44 -96 44 -97 26 -125 -16 -24 -16 -26 3 -40 12 -9 31 -12 54
-8 32 5 45 -1 142 -74 163 -121 289 -177 304 -136 14 35 -151 231 -265 316
-27 20 -31 29 -31 69 0 41 -12 70 -30 70 -3 0 -15 -7 -28 -15z"/>
<path d="M5892 1813 c-10 -4 -11 -20 -6 -66 7 -63 15 -77 47 -77 11 0 39 -18
64 -40 25 -22 69 -56 98 -75 127 -84 118 -8 -15 139 -45 50 -60 74 -60 96 0
31 -17 39 -37 19 -8 -8 -17 -8 -31 0 -22 12 -39 13 -60 4z"/>
<path d="M2245 1730 c-7 -12 2 -30 16 -30 12 0 12 27 0 35 -5 3 -12 1 -16 -5z"/>
</g>
</svg>
